<svg width="34" height="34" viewBox="0 0 34 34" fill="none" xmlns="http://www.w3.org/2000/svg"><path fill-rule="evenodd" clip-rule="evenodd" d="M25.261 21.605c-.69 1.533-1.02 2.217-1.91 3.572-1.24 1.892-2.988 4.247-5.154 4.267-1.925.018-2.42-1.255-5.031-1.24-2.612.014-3.158 1.262-5.083 1.245-2.166-.02-3.823-2.148-5.063-4.039C-.45 20.12-.811 13.914 1.328 10.614 2.848 8.268 5.246 6.896 7.5 6.896c2.296 0 3.74 1.261 5.637 1.261 1.842 0 2.964-1.263 5.618-1.263 2.006 0 4.132 1.094 5.647 2.987-4.963 2.724-4.157 9.825.858 11.724" fill="#fff"></path><path fill-rule="evenodd" clip-rule="evenodd" d="M16.742 4.781C17.706 3.541 18.44 1.79 18.174 0 16.6.109 14.755 1.113 13.68 2.422c-.976 1.188-1.783 2.95-1.469 4.663 1.72.054 3.5-.975 4.532-2.304z" fill="#fff"></path></svg>